<?xml version="1.0" standalone="no"?><svg xmlns="http://www.w3.org/2000/svg" viewBox="0 0 1440 320"><path fill="#152446" fill-opacity="0.9" d="M0,64L26.7,80C53.3,96,107,128,160,117.3C213.3,107,267,53,320,48C373.3,43,427,85,480,122.7C533.3,160,587,192,640,197.3C693.3,203,747,181,800,186.7C853.3,192,907,224,960,250.7C1013.3,277,1067,299,1120,256C1173.3,213,1227,107,1280,69.3C1333.3,32,1387,64,1413,80L1440,96L1440,320L1413.3,320C1386.7,320,1333,320,1280,320C1226.7,320,1173,320,1120,320C1066.7,320,1013,320,960,320C906.7,320,853,320,800,320C746.7,320,693,320,640,320C586.7,320,533,320,480,320C426.7,320,373,320,320,320C266.7,320,213,320,160,320C106.7,320,53,320,27,320L0,320Z"></path></svg>