<?xml version="1.0" ?><svg viewBox="0 0 22.575 22.575" xmlns="http://www.w3.org/2000/svg"><g data-name="Layer 2" id="Layer_2"><g data-name="Layer 1" id="Layer_1-2"><path d="M22.233,0H.342A.342.342,0,0,0,0,.342V22.233a.342.342,0,0,0,.342.342H14.108a.342.342,0,0,0,0-.684H.684V3.876H21.891V21.891H20.037a.342.342,0,0,0,0,.684h2.2a.342.342,0,0,0,.342-.342V.342A.342.342,0,0,0,22.233,0Zm-.342,3.192H.684V.684H21.891ZM19.8,2.179c-.319-.313.173-.793.483-.483S20.11,2.5,19.8,2.179Zm-1.925-.242a.342.342,0,0,1,.684,0A.342.342,0,0,1,17.879,1.937Zm-1.724.242a.342.342,0,0,1,.484-.483C16.958,2,16.463,2.5,16.155,2.179ZM15.7,15.8C19.247,8.59,10.142,1.942,4.36,7.552-1.25,13.335,5.4,22.44,12.608,18.89l3.045,3.045a2.185,2.185,0,1,0,3.09-3.09Zm-2.785,2.427a.343.343,0,0,0-.409-.057A6.413,6.413,0,0,1,4.844,8.035c5.328-5.151,13.631,1.138,10.134,7.66a.342.342,0,0,0,.056.409L17.228,18.3,15.105,20.42Zm5.347,3.225a1.5,1.5,0,0,1-2.122,0l-.548-.548,2.122-2.123.548.548A1.5,1.5,0,0,1,18.259,21.452Zm-4.327-9.958-1.354-.215-.023-.054.8-1.109a.344.344,0,0,0,0-.4A4.887,4.887,0,0,0,12.237,8.59a.339.339,0,0,0-.4,0l-1.11.805-.054-.022-.216-1.356a.341.341,0,0,0-.282-.283,4.827,4.827,0,0,0-1.591,0,.341.341,0,0,0-.282.283L8.086,9.373,8.032,9.4,6.921,8.591a.342.342,0,0,0-.4,0A4.918,4.918,0,0,0,5.4,9.716a.341.341,0,0,0,0,.4L6.2,11.225l-.022.054-1.354.215c-.442.115-.3.728-.35,1.078.048.351-.092.965.35,1.078l1.354.216.022.054L5.4,15.03a.341.341,0,0,0,0,.4A4.894,4.894,0,0,0,6.52,16.555a.342.342,0,0,0,.4,0l1.11-.8.055.023L8.3,17.127c.115.442.722.3,1.077.348.356-.049.963.094,1.078-.349l.216-1.355c.018-.007.036-.014.054-.023l1.11.806a.341.341,0,0,0,.4,0,4.84,4.84,0,0,0,1.124-1.125.341.341,0,0,0,0-.4l-.8-1.11.023-.054,1.354-.216c.442-.11.3-.738.351-1.078C14.235,12.233,14.374,11.606,13.932,11.494Zm-.358,1.521-1.3.206a.344.344,0,0,0-.27.23c-.06.234-.295.474-.12.707l.774,1.068a4.19,4.19,0,0,1-.624.625l-1.066-.774c-.233-.176-.478.062-.709.119a.343.343,0,0,0-.229.27l-.207,1.3a4.362,4.362,0,0,1-.885,0l-.207-1.3c-.038-.286-.384-.295-.58-.417a.345.345,0,0,0-.358.028l-1.066.774a4.245,4.245,0,0,1-.625-.625l.774-1.068c.176-.231-.062-.476-.118-.7a.343.343,0,0,0-.271-.232l-1.3-.206a4.091,4.091,0,0,1,0-.885l1.3-.207c.29-.042.29-.373.417-.582a.342.342,0,0,0-.028-.355L6.1,9.92a4.21,4.21,0,0,1,.625-.627l1.066.774c.234.175.474-.058.708-.118a.34.34,0,0,0,.23-.27l.207-1.3a4.082,4.082,0,0,1,.884,0l.208,1.3c.045.293.366.288.584.419a.342.342,0,0,0,.354-.029l1.066-.775a4.244,4.244,0,0,1,.624.626l-.774,1.067c-.175.234.06.474.12.709a.342.342,0,0,0,.27.228l1.3.207A4.029,4.029,0,0,1,13.574,13.015ZM9.38,11.09a1.483,1.483,0,0,0,0,2.965A1.483,1.483,0,0,0,9.38,11.09Zm0,2.28a.8.8,0,0,1,0-1.6A.8.8,0,0,1,9.38,13.37Z" id="seo"/></g></g></svg>